<svg id="Capa_1" enable-background="new 0 0 497 497" height="512" viewBox="0 0 497 497" width="512" xmlns="http://www.w3.org/2000/svg"><path d="m158.998 462.875h-.998c-8.284 0-15-6.716-15-15v-90c0-8.284 6.716-15 15-15h60c8.284 0 15 6.716 15 15v30.997c.001 40.805-33.197 74.003-74.002 74.003z" fill="#fff36c"/><path d="m467 34.126c-8.284 0-15 6.716-15 15v335.001c0 16.542-13.458 30-30 30-16.547 0-30.008-13.458-30.008-30v-54c0-.015-.002-.029-.002-.044-.013-3.206-1.083-6.382-3.008-8.941-3.097-4.123-8.223-6.413-13.365-5.94-2.953.272-5.836 1.44-8.13 3.324-.384.315-.753.647-1.104.998l-28.493 28.494c-5.858 5.857-5.858 15.355 0 21.213 2.929 2.929 6.768 4.394 10.606 4.394s7.678-1.465 10.606-4.394l2.889-2.889v17.787c0 33.084 26.919 60 60.008 60 33.084 0 60-26.916 60-60v-335.003c.001-8.284-6.714-15-14.999-15z" fill="#00347b"/><path d="m14.996 419.875c-2.021 0-4.063-.409-6.002-1.256-6.123-2.677-9.738-9.08-8.864-15.705l9.741-73.913-9.741-73.914c-.874-6.625 2.741-13.029 8.864-15.705s13.278-.979 17.547 4.163l50 75.874c4.613 5.556 4.613 13.609 0 19.164l-50 75.873c-2.917 3.514-7.183 5.419-11.545 5.419z" fill="#ffd222"/><path d="m467 315.126c-16.542 0-30-13.458-30-30s13.458-30 30-30 30 13.458 30 30-13.458 30-30 30z" fill="#ff415b"/><path d="m218.001 315.126h-60c-8.284 0-15-6.716-15-15v-90c0-8.284 6.716-15 15-15h.998c40.805 0 74.003 33.197 74.003 74.003v30.997c-.001 8.285-6.717 15-15.001 15z" fill="#fff36c"/><path d="m187.671 200.91v114.217h30.33c8.284 0 15-6.716 15-15v-30.997c0-30.645-18.724-56.995-45.33-68.22z" fill="#ffde46"/><path d="m218.001 342.874h-30.33v114.217c26.607-11.225 45.33-37.576 45.33-68.22v-30.997c0-8.284-6.716-15-15-15z" fill="#ffde46"/><path d="m187.671 419.979c-27.575 0-54.056-8.308-76.581-24.023-22.005-15.354-38.715-36.641-48.322-61.56-1.339-3.473-1.339-7.318 0-10.791 9.607-24.919 26.316-46.206 48.322-61.561 22.525-15.716 49.006-24.023 76.581-24.023s54.056 8.308 76.581 24.023c22.006 15.354 38.715 36.642 48.322 61.561 1.339 3.473 1.339 7.318 0 10.791-9.607 24.919-26.316 46.206-48.322 61.56-22.525 15.716-49.006 24.023-76.581 24.023z" fill="#ff7c48"/><path d="m312.574 323.605c-9.607-24.919-26.316-46.206-48.322-61.561-22.525-15.716-49.006-24.023-76.581-24.023v181.958c27.575 0 54.056-8.308 76.581-24.023 22.006-15.354 38.715-36.641 48.322-61.56 1.339-3.472 1.339-7.318 0-10.791z" fill="#ff415b"/><path clip-rule="evenodd" d="m256 344c8.262 0 15-6.738 15-15s-6.738-15-15-15-15 6.738-15 15 6.738 15 15 15z" fill="#eee1dc" fill-rule="evenodd"/></svg>